<svg width="16" height="16" viewBox="0 0 16 16" fill="none" xmlns="http://www.w3.org/2000/svg">
<path d="M3.33333 2.66667H3.45333C3.72667 3.44 4.46 4 5.33333 4H6.66667C7.53333 4 8.26667 3.44 8.54667 2.66667H8.66667C9.58 2.66667 10.3733 3.28 10.6067 4.16667C10.7 4.52667 11.06 4.74 11.42 4.64667C11.7733 4.55333 11.9933 4.19333 11.9 3.83333C11.52 2.36 10.1933 1.33333 8.67333 1.33333H8.56C8.28667 0.56 7.54667 0 6.67333 0H5.34C4.47333 0 3.72667 0.56 3.45333 1.33333H3.34C1.49333 1.33333 0 2.82667 0 4.66667V12.6667C0 14.5067 1.49333 16 3.33333 16H5.33333C5.7 16 6 15.7 6 15.3333C6 14.9667 5.7 14.6667 5.33333 14.6667H3.33333C2.23333 14.6667 1.33333 13.7667 1.33333 12.6667V4.66667C1.33333 3.56667 2.23333 2.66667 3.33333 2.66667ZM5.33333 1.33333H6.66667C7.03333 1.33333 7.33333 1.63333 7.33333 2C7.33333 2.36667 7.03333 2.66667 6.66667 2.66667H5.33333C4.96667 2.66667 4.66667 2.36667 4.66667 2C4.66667 1.63333 4.96667 1.33333 5.33333 1.33333ZM13.3333 6H10C8.52667 6 7.33333 7.19333 7.33333 8.66667V13.3333C7.33333 14.8067 8.52667 16 10 16H13.3333C14.8067 16 16 14.8067 16 13.3333V8.66667C16 7.19333 14.8067 6 13.3333 6ZM14.6667 13.3333C14.6667 14.0667 14.0667 14.6667 13.3333 14.6667H10C9.26667 14.6667 8.66667 14.0667 8.66667 13.3333V8.66667C8.66667 7.93333 9.26667 7.33333 10 7.33333H13.3333C14.0667 7.33333 14.6667 7.93333 14.6667 8.66667V13.3333ZM13.3333 9.33333C13.3333 9.7 13.0333 10 12.6667 10H10.6667C10.3 10 10 9.7 10 9.33333C10 8.96667 10.3 8.66667 10.6667 8.66667H12.6667C13.0333 8.66667 13.3333 8.96667 13.3333 9.33333ZM13.3333 12C13.3333 12.3667 13.0333 12.6667 12.6667 12.6667H10.6667C10.3 12.6667 10 12.3667 10 12C10 11.6333 10.3 11.3333 10.6667 11.3333H12.6667C13.0333 11.3333 13.3333 11.6333 13.3333 12Z" fill="black"/>
</svg>
