<svg xmlns="http://www.w3.org/2000/svg" viewBox="0 0 512 512"><path fill="#3B82F6" d="M75 75L41 41C25.9 25.9 0 36.6 0 57.9V168c0 13.3 10.7 24 24 24H134.1c21.4 0 32.1-25.9 17-41l-34-34c41.4-41.4 98.6-67 161.9-67c95.2 0 174.2 69.3 189.4 160.3c2.2 13 14.3 21.7 27.4 19.5s21.7-14.3 19.5-27.4C497.3 102.7 395.2 16 279 16C196.5 16 121.7 47.4 75 75zm367 367l34 34c15.1 15.1 41 4.4 41-16.9V349c0-13.3-10.7-24-24-24H377.9c-21.4 0-32.1 25.9-17 41l34 34c-41.4 41.4-98.6 67-161.9 67c-95.2 0-174.2-69.3-189.4-160.3c-2.2-13-14.3-21.7-27.4-19.5s-21.7 14.3-19.5 27.4C14.7 409.3 116.8 496 233 496c82.5 0 157.3-31.4 204-59z"/></svg>
